%TF.GenerationSoftware,KiCad,Pcbnew,(6.0.4)*%
%TF.CreationDate,2022-05-02T14:14:32+02:00*%
%TF.ProjectId,HB-SEN-BME280_EXP625,48422d53-454e-42d4-924d-453238305f45,1.0*%
%TF.SameCoordinates,Original*%
%TF.FileFunction,Soldermask,Top*%
%TF.FilePolarity,Negative*%
%FSLAX46Y46*%
G04 Gerber Fmt 4.6, Leading zero omitted, Abs format (unit mm)*
G04 Created by KiCad (PCBNEW (6.0.4)) date 2022-05-02 14:14:32*
%MOMM*%
%LPD*%
G01*
G04 APERTURE LIST*
%ADD10R,1.200000X1.200000*%
%ADD11C,1.200000*%
%ADD12C,1.670000*%
%ADD13C,3.200000*%
%ADD14R,2.500000X2.500000*%
%ADD15C,2.500000*%
%ADD16R,1.700000X1.700000*%
%ADD17O,1.700000X1.700000*%
%ADD18C,0.700000*%
%ADD19C,4.400000*%
%ADD20C,1.600000*%
%ADD21O,1.600000X1.600000*%
%ADD22R,1.717500X1.800000*%
%ADD23O,1.717500X1.800000*%
%ADD24C,1.524000*%
%ADD25R,1.800000X1.800000*%
%ADD26C,1.800000*%
%ADD27C,2.000000*%
%ADD28C,3.000000*%
G04 APERTURE END LIST*
D10*
%TO.C,C1*%
X160340000Y-114300000D03*
D11*
X161840000Y-114300000D03*
%TD*%
D12*
%TO.C,BT2*%
X172275000Y-108600000D03*
D13*
X165500000Y-101500000D03*
X124650000Y-101500000D03*
D14*
X172275000Y-101500000D03*
D15*
X117875000Y-101500000D03*
%TD*%
D16*
%TO.C,J3*%
X151400000Y-65750000D03*
D17*
X153940000Y-65750000D03*
X156480000Y-65750000D03*
X159020000Y-65750000D03*
X161560000Y-65750000D03*
X164100000Y-65750000D03*
%TD*%
D18*
%TO.C,H1*%
X119433274Y-65083274D03*
X121766726Y-67416726D03*
X118950000Y-66250000D03*
X119433274Y-67416726D03*
D19*
X120600000Y-66250000D03*
D18*
X120600000Y-67900000D03*
X120600000Y-64600000D03*
X122250000Y-66250000D03*
X121766726Y-65083274D03*
%TD*%
D20*
%TO.C,R4*%
X162880000Y-124250000D03*
D21*
X160340000Y-124250000D03*
%TD*%
D22*
%TO.C,Q1*%
X126685000Y-90170000D03*
D23*
X128975000Y-90170000D03*
X131265000Y-90170000D03*
%TD*%
D20*
%TO.C,R6*%
X170290000Y-90170000D03*
D21*
X172830000Y-90170000D03*
%TD*%
D18*
%TO.C,H4*%
X167950000Y-124250000D03*
X168433274Y-125416726D03*
X171250000Y-124250000D03*
X169600000Y-125900000D03*
D19*
X169600000Y-124250000D03*
D18*
X168433274Y-123083274D03*
X169600000Y-122600000D03*
X170766726Y-125416726D03*
X170766726Y-123083274D03*
%TD*%
D20*
%TO.C,R3*%
X162880000Y-118872000D03*
D21*
X160340000Y-118872000D03*
%TD*%
D24*
%TO.C,U3*%
X151577000Y-117297000D03*
X149037000Y-117297000D03*
X146497000Y-117297000D03*
X143957000Y-117297000D03*
X141417000Y-117297000D03*
X138877000Y-117297000D03*
%TD*%
D25*
%TO.C,D1*%
X127320000Y-116750000D03*
D26*
X129860000Y-116750000D03*
%TD*%
D27*
%TO.C,SW1*%
X122350000Y-114500000D03*
X115850000Y-114500000D03*
X122350000Y-119000000D03*
X115850000Y-119000000D03*
%TD*%
%TO.C,SW2*%
X174310000Y-114500000D03*
X167810000Y-114500000D03*
X167810000Y-119000000D03*
X174310000Y-119000000D03*
%TD*%
D20*
%TO.C,R5*%
X162555000Y-90170000D03*
D21*
X165095000Y-90170000D03*
%TD*%
D20*
%TO.C,R1*%
X117795000Y-90170000D03*
D21*
X120335000Y-90170000D03*
%TD*%
D18*
%TO.C,H2*%
X168433274Y-67416726D03*
X168433274Y-65083274D03*
X171250000Y-66250000D03*
X169600000Y-64600000D03*
D19*
X169600000Y-66250000D03*
D18*
X169600000Y-67900000D03*
X170766726Y-67416726D03*
X167950000Y-66250000D03*
X170766726Y-65083274D03*
%TD*%
%TO.C,H3*%
X119433274Y-123083274D03*
X120600000Y-125900000D03*
X118950000Y-124250000D03*
X122250000Y-124250000D03*
X121766726Y-125416726D03*
D19*
X120600000Y-124250000D03*
D18*
X121766726Y-123083274D03*
X119433274Y-125416726D03*
X120600000Y-122600000D03*
%TD*%
D13*
%TO.C,BT1*%
X165500000Y-78740000D03*
D12*
X117875000Y-71640000D03*
D13*
X124650000Y-78740000D03*
D14*
X117875000Y-78740000D03*
D15*
X172275000Y-78740000D03*
%TD*%
D20*
%TO.C,R2*%
X127320000Y-124460000D03*
D21*
X129860000Y-124460000D03*
%TD*%
D16*
%TO.C,J2*%
X126100000Y-65750000D03*
D17*
X128640000Y-65750000D03*
X131180000Y-65750000D03*
X133720000Y-65750000D03*
X136260000Y-65750000D03*
X138800000Y-65750000D03*
%TD*%
D28*
%TO.C,U2*%
X145100000Y-90170000D03*
%TD*%
M02*
