%TF.GenerationSoftware,KiCad,Pcbnew,(6.0.4)*%
%TF.CreationDate,2022-05-02T14:14:32+02:00*%
%TF.ProjectId,HB-SEN-BME280_EXP625,48422d53-454e-42d4-924d-453238305f45,1.0*%
%TF.SameCoordinates,Original*%
%TF.FileFunction,Paste,Bot*%
%TF.FilePolarity,Positive*%
%FSLAX46Y46*%
G04 Gerber Fmt 4.6, Leading zero omitted, Abs format (unit mm)*
G04 Created by KiCad (PCBNEW (6.0.4)) date 2022-05-02 14:14:32*
%MOMM*%
%LPD*%
G01*
G04 APERTURE LIST*
%ADD10C,1.800000*%
%ADD11C,1.350000*%
G04 APERTURE END LIST*
D10*
%TO.C,U1*%
X157810000Y-69860000D03*
X129870000Y-77480000D03*
X157810000Y-85100000D03*
X160350000Y-83830000D03*
X148920000Y-72400000D03*
X155270000Y-69860000D03*
X129870000Y-74940000D03*
X155270000Y-85100000D03*
X160350000Y-81290000D03*
X146380000Y-72400000D03*
X152730000Y-69860000D03*
X129870000Y-72400000D03*
X152730000Y-85100000D03*
X160350000Y-78750000D03*
X150190000Y-69860000D03*
X150190000Y-85100000D03*
X160350000Y-76210000D03*
X147650000Y-69860000D03*
X147650000Y-85100000D03*
X160350000Y-73670000D03*
X145110000Y-69860000D03*
X145110000Y-85100000D03*
X160350000Y-71130000D03*
X142570000Y-69860000D03*
X142570000Y-85100000D03*
X140030000Y-69860000D03*
X140030000Y-85100000D03*
X137490000Y-69860000D03*
X137490000Y-85100000D03*
X134950000Y-69860000D03*
X134950000Y-85100000D03*
X132410000Y-69860000D03*
X132410000Y-85100000D03*
X129870000Y-69860000D03*
X129870000Y-85100000D03*
%TD*%
D11*
%TO.C,U2*%
X147600000Y-90170000D03*
X153100000Y-108170000D03*
X151100000Y-108170000D03*
X142600000Y-90170000D03*
X149100000Y-108170000D03*
X147100000Y-108170000D03*
X145100000Y-108170000D03*
X143100000Y-108170000D03*
X141100000Y-108170000D03*
X139100000Y-108170000D03*
%TD*%
M02*
