M48
; DRILL file {KiCad (6.0.4)} date Mon May  2 14:14:34 2022
; FORMAT={-:-/ absolute / metric / decimal}
; #@! TF.CreationDate,2022-05-02T14:14:34+02:00
; #@! TF.GenerationSoftware,Kicad,Pcbnew,(6.0.4)
; #@! TF.FileFunction,Plated,1,2,PTH
FMAT,2
METRIC
; #@! TA.AperFunction,Plated,PTH,ViaDrill
T1C0.400
; #@! TA.AperFunction,Plated,PTH,ComponentDrill
T2C0.400
; #@! TA.AperFunction,Plated,PTH,ComponentDrill
T3C0.600
; #@! TA.AperFunction,Plated,PTH,ComponentDrill
T4C0.762
; #@! TA.AperFunction,Plated,PTH,ComponentDrill
T5C0.800
; #@! TA.AperFunction,Plated,PTH,ComponentDrill
T6C0.900
; #@! TA.AperFunction,Plated,PTH,ComponentDrill
T7C1.000
; #@! TA.AperFunction,Plated,PTH,ComponentDrill
T8C1.100
; #@! TA.AperFunction,Plated,PTH,ComponentDrill
T9C1.190
; #@! TA.AperFunction,Plated,PTH,ComponentDrill
T10C2.200
; #@! TA.AperFunction,Plated,PTH,ComponentDrill
T11C2.700
%
G90
G05
T1
X132.6Y-73.75
X134.1Y-73.75
X135.6Y-73.732
X137.1Y-73.75
X139.1Y-105.25
X140.1Y-73.75
X140.1Y-105.25
X141.112Y-105.262
X142.118Y-105.243
X143.6Y-73.25
X146.37Y-76.2
X147.6Y-82.25
X147.64Y-113.03
X148.6Y-111.25
X148.91Y-76.2
X151.1Y-89.25
X152.6Y-72.25
T2
X118.95Y-66.25
X118.95Y-124.25
X119.433Y-65.083
X119.433Y-67.417
X119.433Y-123.083
X119.433Y-125.417
X120.6Y-64.6
X120.6Y-67.9
X120.6Y-122.6
X120.6Y-125.9
X121.767Y-65.083
X121.767Y-67.417
X121.767Y-123.083
X121.767Y-125.417
X122.25Y-66.25
X122.25Y-124.25
X167.95Y-66.25
X167.95Y-124.25
X168.433Y-65.083
X168.433Y-67.417
X168.433Y-123.083
X168.433Y-125.417
X169.6Y-64.6
X169.6Y-67.9
X169.6Y-122.6
X169.6Y-125.9
X170.767Y-65.083
X170.767Y-67.417
X170.767Y-123.083
X170.767Y-125.417
X171.25Y-66.25
X171.25Y-124.25
T3
X160.34Y-114.3
X161.84Y-114.3
T4
X138.877Y-117.297
X141.417Y-117.297
X143.957Y-117.297
X146.497Y-117.297
X149.037Y-117.297
X151.577Y-117.297
T5
X117.795Y-90.17
X120.335Y-90.17
X127.32Y-124.46
X129.86Y-124.46
X160.34Y-118.872
X160.34Y-124.25
X162.555Y-90.17
X162.88Y-118.872
X162.88Y-124.25
X165.095Y-90.17
X170.29Y-90.17
X172.83Y-90.17
T6
X127.32Y-116.75
X129.86Y-116.75
T7
X126.1Y-65.75
X128.64Y-65.75
X131.18Y-65.75
X133.72Y-65.75
X136.26Y-65.75
X138.8Y-65.75
X151.4Y-65.75
X153.94Y-65.75
X156.48Y-65.75
X159.02Y-65.75
X161.56Y-65.75
X164.1Y-65.75
T8
X115.85Y-114.5
X115.85Y-119.0
X122.35Y-114.5
X122.35Y-119.0
X126.685Y-90.17
X128.975Y-90.17
X131.265Y-90.17
X167.81Y-114.5
X167.81Y-119.0
X174.31Y-114.5
X174.31Y-119.0
T9
X117.875Y-78.74
X117.875Y-101.5
X172.275Y-78.74
X172.275Y-101.5
T10
X120.6Y-66.25
X120.6Y-124.25
X169.6Y-66.25
X169.6Y-124.25
T11
X145.1Y-90.17
T0
M30
