%TF.GenerationSoftware,KiCad,Pcbnew,(6.0.4)*%
%TF.CreationDate,2022-05-02T14:14:32+02:00*%
%TF.ProjectId,HB-SEN-BME280_EXP625,48422d53-454e-42d4-924d-453238305f45,1.0*%
%TF.SameCoordinates,Original*%
%TF.FileFunction,Copper,L1,Top*%
%TF.FilePolarity,Positive*%
%FSLAX46Y46*%
G04 Gerber Fmt 4.6, Leading zero omitted, Abs format (unit mm)*
G04 Created by KiCad (PCBNEW (6.0.4)) date 2022-05-02 14:14:32*
%MOMM*%
%LPD*%
G01*
G04 APERTURE LIST*
%TA.AperFunction,ComponentPad*%
%ADD10R,1.200000X1.200000*%
%TD*%
%TA.AperFunction,ComponentPad*%
%ADD11C,1.200000*%
%TD*%
%TA.AperFunction,ComponentPad*%
%ADD12R,2.500000X2.500000*%
%TD*%
%TA.AperFunction,ComponentPad*%
%ADD13C,2.500000*%
%TD*%
%TA.AperFunction,ComponentPad*%
%ADD14R,1.700000X1.700000*%
%TD*%
%TA.AperFunction,ComponentPad*%
%ADD15O,1.700000X1.700000*%
%TD*%
%TA.AperFunction,ComponentPad*%
%ADD16C,0.700000*%
%TD*%
%TA.AperFunction,ComponentPad*%
%ADD17C,4.400000*%
%TD*%
%TA.AperFunction,ComponentPad*%
%ADD18C,1.600000*%
%TD*%
%TA.AperFunction,ComponentPad*%
%ADD19O,1.600000X1.600000*%
%TD*%
%TA.AperFunction,ComponentPad*%
%ADD20R,1.717500X1.800000*%
%TD*%
%TA.AperFunction,ComponentPad*%
%ADD21O,1.717500X1.800000*%
%TD*%
%TA.AperFunction,ComponentPad*%
%ADD22C,1.524000*%
%TD*%
%TA.AperFunction,ComponentPad*%
%ADD23R,1.800000X1.800000*%
%TD*%
%TA.AperFunction,ComponentPad*%
%ADD24C,1.800000*%
%TD*%
%TA.AperFunction,ComponentPad*%
%ADD25C,2.000000*%
%TD*%
%TA.AperFunction,ComponentPad*%
%ADD26C,3.000000*%
%TD*%
%TA.AperFunction,ViaPad*%
%ADD27C,0.800000*%
%TD*%
%TA.AperFunction,Conductor*%
%ADD28C,1.000000*%
%TD*%
%TA.AperFunction,Conductor*%
%ADD29C,0.250000*%
%TD*%
G04 APERTURE END LIST*
D10*
%TO.P,C1,1*%
%TO.N,VCC*%
X160340000Y-114300000D03*
D11*
%TO.P,C1,2*%
%TO.N,GND*%
X161840000Y-114300000D03*
%TD*%
D12*
%TO.P,BT2,1,+*%
%TO.N,Net-(BT1-Pad2)*%
X172275000Y-101500000D03*
D13*
%TO.P,BT2,2,-*%
%TO.N,/CTS*%
X117875000Y-101500000D03*
%TD*%
D14*
%TO.P,J3,1,Pin_1*%
%TO.N,/DTR*%
X151400000Y-65750000D03*
D15*
%TO.P,J3,2,Pin_2*%
%TO.N,/RX*%
X153940000Y-65750000D03*
%TO.P,J3,3,Pin_3*%
%TO.N,/TX*%
X156480000Y-65750000D03*
%TO.P,J3,4,Pin_4*%
%TO.N,VCC*%
X159020000Y-65750000D03*
%TO.P,J3,5,Pin_5*%
%TO.N,/CTS*%
X161560000Y-65750000D03*
%TO.P,J3,6,Pin_6*%
X164100000Y-65750000D03*
%TD*%
D16*
%TO.P,H1,1*%
%TO.N,N/C*%
X119433274Y-65083274D03*
X121766726Y-67416726D03*
X118950000Y-66250000D03*
X119433274Y-67416726D03*
D17*
X120600000Y-66250000D03*
D16*
X120600000Y-67900000D03*
X120600000Y-64600000D03*
X122250000Y-66250000D03*
X121766726Y-65083274D03*
%TD*%
D18*
%TO.P,R4,1*%
%TO.N,/SDA*%
X162880000Y-124250000D03*
D19*
%TO.P,R4,2*%
%TO.N,VCC*%
X160340000Y-124250000D03*
%TD*%
D20*
%TO.P,Q1,1,G*%
%TO.N,Net-(Q1-Pad1)*%
X126685000Y-90170000D03*
D21*
%TO.P,Q1,2,D*%
%TO.N,/CTS*%
X128975000Y-90170000D03*
%TO.P,Q1,3,S*%
%TO.N,GND*%
X131265000Y-90170000D03*
%TD*%
D18*
%TO.P,R6,1*%
%TO.N,/A0*%
X170290000Y-90170000D03*
D19*
%TO.P,R6,2*%
%TO.N,VCC*%
X172830000Y-90170000D03*
%TD*%
D16*
%TO.P,H4,1*%
%TO.N,N/C*%
X167950000Y-124250000D03*
X168433274Y-125416726D03*
X171250000Y-124250000D03*
X169600000Y-125900000D03*
D17*
X169600000Y-124250000D03*
D16*
X168433274Y-123083274D03*
X169600000Y-122600000D03*
X170766726Y-125416726D03*
X170766726Y-123083274D03*
%TD*%
D18*
%TO.P,R3,1*%
%TO.N,/SCL*%
X162880000Y-118872000D03*
D19*
%TO.P,R3,2*%
%TO.N,VCC*%
X160340000Y-118872000D03*
%TD*%
D22*
%TO.P,U3,1,VCC*%
%TO.N,VCC*%
X151577000Y-117297000D03*
%TO.P,U3,2,GND*%
%TO.N,GND*%
X149037000Y-117297000D03*
%TO.P,U3,3,SCL*%
%TO.N,/SCL*%
X146497000Y-117297000D03*
%TO.P,U3,4,SDA*%
%TO.N,/SDA*%
X143957000Y-117297000D03*
%TO.P,U3,5,CSB*%
%TO.N,unconnected-(U3-Pad5)*%
X141417000Y-117297000D03*
%TO.P,U3,6,SDO*%
%TO.N,unconnected-(U3-Pad6)*%
X138877000Y-117297000D03*
%TD*%
D23*
%TO.P,D1,1,K*%
%TO.N,GND*%
X127320000Y-116750000D03*
D24*
%TO.P,D1,2,A*%
%TO.N,Net-(D1-Pad2)*%
X129860000Y-116750000D03*
%TD*%
D25*
%TO.P,SW1,1*%
%TO.N,GND*%
X122350000Y-114500000D03*
X115850000Y-114500000D03*
%TO.P,SW1,2*%
%TO.N,Net-(SW1-Pad2)*%
X122350000Y-119000000D03*
X115850000Y-119000000D03*
%TD*%
%TO.P,SW2,1*%
%TO.N,/RST*%
X174310000Y-114500000D03*
X167810000Y-114500000D03*
%TO.P,SW2,2*%
%TO.N,GND*%
X167810000Y-119000000D03*
X174310000Y-119000000D03*
%TD*%
D18*
%TO.P,R5,1*%
%TO.N,/A2*%
X162555000Y-90170000D03*
D19*
%TO.P,R5,2*%
%TO.N,/A0*%
X165095000Y-90170000D03*
%TD*%
D18*
%TO.P,R1,1*%
%TO.N,VCC*%
X117795000Y-90170000D03*
D19*
%TO.P,R1,2*%
%TO.N,Net-(Q1-Pad1)*%
X120335000Y-90170000D03*
%TD*%
D16*
%TO.P,H2,1*%
%TO.N,N/C*%
X168433274Y-67416726D03*
X168433274Y-65083274D03*
X171250000Y-66250000D03*
X169600000Y-64600000D03*
D17*
X169600000Y-66250000D03*
D16*
X169600000Y-67900000D03*
X170766726Y-67416726D03*
X167950000Y-66250000D03*
X170766726Y-65083274D03*
%TD*%
%TO.P,H3,1*%
%TO.N,N/C*%
X119433274Y-123083274D03*
X120600000Y-125900000D03*
X118950000Y-124250000D03*
X122250000Y-124250000D03*
X121766726Y-125416726D03*
D17*
X120600000Y-124250000D03*
D16*
X121766726Y-123083274D03*
X119433274Y-125416726D03*
X120600000Y-122600000D03*
%TD*%
D12*
%TO.P,BT1,1,+*%
%TO.N,VCC*%
X117875000Y-78740000D03*
D13*
%TO.P,BT1,2,-*%
%TO.N,Net-(BT1-Pad2)*%
X172275000Y-78740000D03*
%TD*%
D18*
%TO.P,R2,1*%
%TO.N,Net-(D1-Pad2)*%
X127320000Y-124460000D03*
D19*
%TO.P,R2,2*%
%TO.N,Net-(R2-Pad2)*%
X129860000Y-124460000D03*
%TD*%
D14*
%TO.P,J2,1,Pin_1*%
%TO.N,VCC*%
X126100000Y-65750000D03*
D15*
%TO.P,J2,2,Pin_2*%
%TO.N,/CTS*%
X128640000Y-65750000D03*
%TO.P,J2,3,Pin_3*%
%TO.N,/MOSI*%
X131180000Y-65750000D03*
%TO.P,J2,4,Pin_4*%
%TO.N,/SCK*%
X133720000Y-65750000D03*
%TO.P,J2,5,Pin_5*%
%TO.N,/MISO*%
X136260000Y-65750000D03*
%TO.P,J2,6,Pin_6*%
%TO.N,/RST*%
X138800000Y-65750000D03*
%TD*%
D26*
%TO.P,U2,2A,ANT*%
%TO.N,unconnected-(U2-Pad2A)*%
X145100000Y-90170000D03*
%TD*%
D27*
%TO.N,/MOSI*%
X140100000Y-105250000D03*
X134100000Y-73750000D03*
%TO.N,/SCK*%
X137100000Y-73750000D03*
X142118088Y-105243490D03*
%TO.N,/MISO*%
X141112299Y-105262299D03*
X135600000Y-73732300D03*
%TO.N,/RST*%
X152600000Y-72250000D03*
%TO.N,/SCL*%
X148910000Y-76200000D03*
X147640000Y-113030000D03*
X148600000Y-111250000D03*
%TO.N,/SDA*%
X146370000Y-76200000D03*
%TO.N,/SS*%
X132600000Y-73750000D03*
X139100000Y-105250000D03*
%TO.N,/D2*%
X151100000Y-89250000D03*
X147600000Y-82250000D03*
%TO.N,/A2*%
X143600000Y-73250000D03*
%TO.N,/A0*%
X140100000Y-73750000D03*
%TD*%
D28*
%TO.N,VCC*%
X159020000Y-65750000D02*
X164270000Y-71000000D01*
X173000000Y-71000000D02*
X175000000Y-73000000D01*
X175000000Y-88000000D02*
X172830000Y-90170000D01*
X175000000Y-73000000D02*
X175000000Y-88000000D01*
X164270000Y-71000000D02*
X173000000Y-71000000D01*
X160340000Y-114300000D02*
X160340000Y-124250000D01*
D29*
%TO.N,/MOSI*%
X134100000Y-73750000D02*
X140100000Y-79750000D01*
X140100000Y-79750000D02*
X140100000Y-105250000D01*
%TO.N,/SCK*%
X142100000Y-78750000D02*
X142100000Y-105225402D01*
X142100000Y-105225402D02*
X142118088Y-105243490D01*
X137100000Y-73750000D02*
X142100000Y-78750000D01*
X133720000Y-70370000D02*
X133720000Y-65750000D01*
X137100000Y-73750000D02*
X133720000Y-70370000D01*
%TO.N,/MISO*%
X141100000Y-79250000D02*
X141100000Y-105250000D01*
X141100000Y-105250000D02*
X141112299Y-105262299D01*
X135600000Y-73750000D02*
X141100000Y-79250000D01*
X135600000Y-73732300D02*
X135600000Y-73750000D01*
%TO.N,/RST*%
X138800000Y-69950000D02*
X138800000Y-65750000D01*
X162500000Y-87000000D02*
X163500000Y-88000000D01*
X162500000Y-74500000D02*
X162500000Y-87000000D01*
X152600000Y-72250000D02*
X141100000Y-72250000D01*
X152600000Y-72250000D02*
X160250000Y-72250000D01*
X160250000Y-72250000D02*
X162500000Y-74500000D01*
X163500000Y-88000000D02*
X167000000Y-88000000D01*
X167810000Y-88810000D02*
X167810000Y-114500000D01*
X141100000Y-72250000D02*
X138800000Y-69950000D01*
X167000000Y-88000000D02*
X167810000Y-88810000D01*
%TO.N,/SCL*%
X147640000Y-113030000D02*
X146497000Y-114173000D01*
X148600000Y-89250000D02*
X148600000Y-111250000D01*
X146497000Y-114173000D02*
X146497000Y-116825000D01*
X162880000Y-113030000D02*
X164100000Y-114250000D01*
X146100000Y-75250000D02*
X145100000Y-76250000D01*
X164100000Y-117652000D02*
X162880000Y-118872000D01*
X148100000Y-75250000D02*
X146100000Y-75250000D01*
X145100000Y-76250000D02*
X145100000Y-85750000D01*
X147640000Y-113030000D02*
X162880000Y-113030000D01*
X148910000Y-76060000D02*
X148100000Y-75250000D01*
X164100000Y-114250000D02*
X164100000Y-117652000D01*
X145100000Y-85750000D02*
X148600000Y-89250000D01*
X148910000Y-76200000D02*
X148910000Y-76060000D01*
%TO.N,/SDA*%
X165100000Y-113750000D02*
X165100000Y-122030000D01*
X165100000Y-122030000D02*
X162880000Y-124250000D01*
X146370000Y-76200000D02*
X146370000Y-85750000D01*
X148900103Y-111974511D02*
X146155489Y-111974511D01*
X146370000Y-85750000D02*
X149600000Y-88980000D01*
X149600000Y-88980000D02*
X149600000Y-111274614D01*
X146155489Y-111974511D02*
X143957000Y-114173000D01*
X163324511Y-111974511D02*
X165100000Y-113750000D01*
X147854511Y-111974511D02*
X163324511Y-111974511D01*
X149600000Y-111274614D02*
X148900103Y-111974511D01*
X143957000Y-114173000D02*
X143957000Y-117297000D01*
%TO.N,/SS*%
X139100000Y-105250000D02*
X139100000Y-80250000D01*
X139100000Y-80250000D02*
X132600000Y-73750000D01*
%TO.N,/D2*%
X151100000Y-89250000D02*
X147600000Y-85750000D01*
X147600000Y-85750000D02*
X147600000Y-82250000D01*
%TO.N,/A2*%
X161500000Y-74900000D02*
X161500000Y-89115000D01*
X159850000Y-73250000D02*
X161500000Y-74900000D01*
X143600000Y-73250000D02*
X159850000Y-73250000D01*
X161500000Y-89115000D02*
X162555000Y-90170000D01*
%TO.N,/A0*%
X165095000Y-91745000D02*
X165095000Y-90170000D01*
X164600000Y-92250000D02*
X165100000Y-91750000D01*
X161100000Y-92250000D02*
X164600000Y-92250000D01*
X160500000Y-91650000D02*
X161100000Y-92250000D01*
X140600000Y-74250000D02*
X159600000Y-74250000D01*
X160500000Y-75150000D02*
X160500000Y-91650000D01*
X140100000Y-73750000D02*
X140600000Y-74250000D01*
X165100000Y-91750000D02*
X165095000Y-91745000D01*
X159600000Y-74250000D02*
X160500000Y-75150000D01*
%TO.N,Net-(Q1-Pad1)*%
X120335000Y-90170000D02*
X126685000Y-90170000D01*
D28*
%TO.N,/CTS*%
X160010489Y-64200489D02*
X161560000Y-65750000D01*
X130149511Y-64200489D02*
X160010489Y-64200489D01*
X130100000Y-64290000D02*
X130100000Y-64250000D01*
X128640000Y-65750000D02*
X130100000Y-64290000D01*
X128640000Y-65750000D02*
X128640000Y-89835000D01*
X128640000Y-89835000D02*
X128975000Y-90170000D01*
X130100000Y-64250000D02*
X130149511Y-64200489D01*
%TD*%
M02*
